name C:\Users\u0101727\Documents\MyRepositories\upper-imu-dc\Results\main_tracking\Case_22\SHRUG01_linearAccelerations_groundFrame.mot
datacolumns 4
datarows 82
range 0.71000000 1.52000000
endheader 
time	radius_imu_x	radius_imu_y	radius_imu_z	
          0.71000000	          0.27017968	         13.33601719	          8.73379626	
          0.72000000	          0.29073466	         12.09400322	          5.87039325	
          0.73000000	          0.21431975	         11.34323924	          3.93703350	
          0.74000000	          0.06934849	         10.87069233	          2.73040713	
          0.75000000	         -0.13992097	         10.59348136	          2.07731341	
          0.76000000	         -0.40358701	         10.45835293	          1.81549008	
          0.77000000	         -0.71530444	         10.42810586	          1.80018687	
          0.78000000	         -1.08229294	         10.47036145	          1.91003353	
          0.79000000	         -1.53414311	         10.54134478	          2.04191166	
          0.80000000	         -2.11258875	         10.57325785	          2.08181670	
          0.81000000	         -2.85774630	         10.47432118	          1.87788435	
          0.82000000	         -3.75865494	         10.05896229	          1.13683565	
          0.83000000	         -4.63855384	          9.30315905	         -0.43983682	
          0.84000000	         -4.49576894	          7.03107658	         -4.27379627	
          0.85000000	         -3.75286369	          6.57489884	         -6.00752121	
          0.86000000	         -2.75725122	          8.84393980	         -2.24055754	
          0.87000000	         -0.55308009	          9.92924105	          0.18116587	
          0.88000000	          1.19918553	         11.70462017	          1.77638888	
          0.89000000	          2.80252448	         12.09230217	          2.59620664	
          0.90000000	          4.05665316	         10.63505275	         -0.19676484	
          0.91000000	          5.34618432	         10.45217032	         -2.84184489	
          0.92000000	          6.10398464	         11.29187865	         -0.87537309	
          0.93000000	          6.62003167	         12.38741870	          1.36467344	
          0.94000000	          6.51555461	         12.04318958	          0.69165849	
          0.95000000	          5.88011777	         11.83215513	         -0.20080302	
          0.96000000	          3.85038845	         12.40066052	          0.54888032	
          0.97000000	          1.76705921	         10.91737985	         -1.46741833	
          0.98000000	         -0.44171487	         10.29463951	         -2.96615955	
          0.99000000	         -2.21786961	          9.00238298	         -4.27226454	
          1.00000000	         -4.52824320	         10.18614561	         -0.81146325	
          1.01000000	         -4.08991081	         10.71473171	          1.16284147	
          1.02000000	         -3.18729107	         11.15040514	          2.56386831	
          1.03000000	         -1.97240204	         11.43018355	          3.30062297	
          1.04000000	         -0.81307785	         11.52061547	          3.51086827	
          1.05000000	          0.06860555	         11.44515263	          3.30460324	
          1.06000000	          0.55965219	         11.18035609	          2.67756094	
          1.07000000	          0.66875331	         10.68914233	          1.50320729	
          1.08000000	          0.56291295	          9.92315131	         -0.48721209	
          1.09000000	          0.72770589	          8.89481932	         -3.78768151	
          1.10000000	          2.85376049	          6.36317340	         -7.62002460	
          1.11000000	          1.56621197	          7.52092759	         -4.82029188	
          1.12000000	          1.52998790	          9.38334421	         -1.64923215	
          1.13000000	          1.49002525	         10.27519270	          0.26651780	
          1.14000000	          1.26378599	         10.90167525	          1.43213095	
          1.15000000	          0.88966127	         11.20120067	          2.09022706	
          1.16000000	          0.48354605	         11.27488788	          2.41237561	
          1.17000000	          0.14488983	         11.19793341	          2.47641440	
          1.18000000	         -0.07071546	         11.04518425	          2.32857479	
          1.19000000	         -0.15394157	         10.87147573	          2.00793519	
          1.20000000	         -0.13175124	         10.70792381	          1.55963723	
          1.21000000	         -0.05371894	         10.56244024	          1.03698561	
          1.22000000	          0.02297213	         10.42646484	          0.49623867	
          1.23000000	          0.04689373	         10.28514379	         -0.01133668	
          1.24000000	         -0.01873051	         10.12626564	         -0.44521683	
          1.25000000	         -0.19271581	          9.94461202	         -0.77705079	
          1.26000000	         -0.47726865	          9.74163829	         -0.98904803	
          1.27000000	         -0.86157230	          9.52290777	         -1.07214679	
          1.28000000	         -1.32509448	          9.29604556	         -1.02623904	
          1.29000000	         -1.83938936	          9.07028362	         -0.86300444	
          1.30000000	         -2.36902553	          8.85677465	         -0.60925213	
          1.31000000	         -2.87370080	          8.66826136	         -0.30635927	
          1.32000000	         -3.31288823	          8.51689553	         -0.00307682	
          1.33000000	         -3.65212230	          8.41034027	          0.25602206	
          1.34000000	         -3.86842515	          8.34872440	          0.44101005	
          1.35000000	         -3.95206038	          8.32516943	          0.54087806	
          1.36000000	         -3.90407383	          8.32954579	          0.56027248	
          1.37000000	         -3.73255646	          8.35286869	          0.51260040	
          1.38000000	         -3.45061678	          8.38960538	          0.41418606	
          1.39000000	         -3.07577342	          8.43776164	          0.28188948	
          1.40000000	         -2.62880447	          8.49531858	          0.13310547	
          1.41000000	         -2.13199294	          8.55794536	         -0.01414634	
          1.42000000	         -1.60766610	          8.62137796	         -0.14367320	
          1.43000000	         -1.07679880	          8.68603156	         -0.24605385	
          1.44000000	         -0.55831578	          8.75839110	         -0.32126189	
          1.45000000	         -0.07008276	          8.84720439	         -0.37646540	
          1.46000000	          0.37046097	          8.96135336	         -0.41942935	
          1.47000000	          0.74796071	          9.11530238	         -0.47106880	
          1.48000000	          1.03871398	          9.22273909	         -0.42690479	
          1.49000000	          1.25429860	          9.29873786	         -0.26429940	
          1.50000000	          1.36543054	          9.60445220	         -0.36879680	
          1.51000000	          1.43837127	         10.05692140	         -0.60931192	
          1.52000000	          1.54821770	         10.03248927	         -0.51427709	
